<?xml version="1.0" encoding="UTF-8"?>
<svg xmlns="http://www.w3.org/2000/svg" xmlns:xlink="http://www.w3.org/1999/xlink" width="401.49pt" height="114.86pt" viewBox="0 0 401.49 114.86" version="1.1">
<defs>
<clipPath id="clip1">
  <path d="M 0 19 L 88 19 L 88 114.859375 L 0 114.859375 Z M 0 19 "/>
</clipPath>
<clipPath id="clip2">
  <path d="M 353 0 L 401.488281 0 L 401.488281 48 L 353 48 Z M 353 0 "/>
</clipPath>
</defs>
<g id="surface1">
<g clip-path="url(#clip1)" clip-rule="nonzero">
<path style=" stroke:none;fill-rule:evenodd;fill:rgb(13.699341%,12.199402%,12.5%);fill-opacity:1;" d="M 0 19.671875 L 29.46875 19.671875 L 29.46875 76.3125 C 29.46875 81.425781 30.644531 85.359375 32.609375 87.320313 C 34.964844 89.683594 38.898438 90.472656 43.613281 90.472656 C 48.714844 90.472656 52.253906 89.683594 54.21875 87.320313 C 56.574219 85.359375 57.75 81.425781 57.75 76.3125 L 57.75 19.671875 L 87.609375 19.671875 L 87.609375 78.671875 C 87.609375 90.078125 83.679688 99.523438 76.214844 105.421875 C 68.75 111.320313 57.75 114.859375 43.613281 114.859375 C 29.46875 114.859375 18.078125 111.320313 11 105.421875 C 3.929688 99.523438 0 90.078125 0 78.671875 L 0 19.671875 "/>
</g>
<path style=" stroke:none;fill-rule:evenodd;fill:rgb(13.699341%,12.199402%,12.5%);fill-opacity:1;" d="M 106.464844 113.285156 L 106.464844 19.671875 L 134.75 19.671875 L 160.675781 63.328125 C 161.464844 64.511719 162.644531 66.085938 163.429688 68.441406 C 164.214844 70.410156 165.390625 73.554688 166.570313 76.707031 C 166.570313 75.523438 166.179688 73.160156 166.179688 71.59375 C 166.179688 69.230469 165.785156 66.875 165.785156 64.117188 L 165.785156 19.671875 L 194.070313 19.671875 L 194.070313 113.285156 L 165.785156 113.285156 L 139.074219 70.410156 C 138.679688 68.835938 137.105469 67.261719 136.316406 64.902344 C 135.539063 62.9375 134.359375 59.785156 133.570313 57.039063 C 133.570313 58.21875 134.359375 60.574219 134.359375 61.757813 C 134.359375 63.722656 134.75 66.480469 134.75 69.625 L 134.75 113.285156 L 106.464844 113.285156 "/>
<path style=" stroke:none;fill-rule:evenodd;fill:rgb(13.699341%,12.199402%,12.5%);fill-opacity:1;" d="M 212.929688 113.285156 L 242.394531 113.285156 L 242.394531 19.671875 L 212.929688 19.671875 Z M 212.929688 113.285156 "/>
<path style=" stroke:none;fill-rule:evenodd;fill:rgb(13.699341%,12.199402%,12.5%);fill-opacity:1;" d="M 252.214844 113.285156 L 284.820313 64.902344 L 255.75 19.671875 L 289.144531 19.671875 L 302.105469 43.269531 L 315.855469 19.671875 L 349.25 19.671875 L 318.605469 64.902344 L 350.425781 113.285156 L 315.855469 113.285156 L 301.710938 88.109375 L 287.570313 113.285156 "/>
<g clip-path="url(#clip2)" clip-rule="nonzero">
<path style=" stroke:none;fill-rule:evenodd;fill:rgb(13.699341%,12.199402%,12.5%);fill-opacity:1;" d="M 376.355469 15.339844 L 375.179688 15.339844 L 375.179688 21.632813 L 376.75 21.632813 C 377.925781 21.632813 379.105469 21.632813 379.894531 21.238281 C 380.28125 20.851563 380.679688 19.671875 380.679688 18.488281 C 380.679688 18.09375 380.28125 16.914063 379.894531 16.523438 C 379.105469 15.734375 377.53125 15.339844 376.355469 15.339844 M 377.53125 10.621094 C 381.074219 10.621094 384.214844 11.015625 386.183594 12.585938 C 388.140625 14.164063 389.320313 16.128906 389.320313 18.09375 C 389.320313 20.0625 388.535156 21.632813 387.746094 22.8125 C 387.355469 23.996094 385.394531 25.175781 383.820313 25.175781 L 389.714844 36.582031 L 380.28125 36.582031 L 375.960938 26.75 L 375.179688 26.75 L 375.179688 36.582031 L 366.53125 36.582031 L 366.53125 10.621094 Z M 396.390625 23.996094 C 396.390625 21.632813 395.601563 18.882813 394.824219 16.914063 C 394.03125 14.558594 392.070313 12.195313 390.890625 10.621094 C 388.929688 9.046875 386.960938 7.46875 384.609375 6.691406 C 382.640625 5.507813 379.894531 4.722656 377.140625 4.722656 C 374.390625 4.722656 372.035156 5.507813 369.675781 6.296875 C 367.714844 7.085938 365.355469 8.652344 363.78125 10.621094 C 362.210938 12.195313 360.25 14.558594 359.460938 16.914063 C 358.679688 18.882813 358.285156 21.632813 358.285156 23.996094 C 358.285156 26.355469 358.679688 29.109375 359.460938 31.46875 C 360.25 33.4375 362.210938 36.1875 363.394531 37.761719 C 365.355469 39.339844 367.714844 40.90625 369.675781 41.695313 C 372.035156 42.480469 374.78125 43.269531 377.140625 43.269531 C 379.496094 43.269531 382.246094 42.480469 384.214844 41.695313 C 386.566406 40.90625 388.929688 39.339844 390.890625 37.367188 C 392.460938 36.1875 394.429688 33.832031 394.824219 31.863281 C 395.601563 29.503906 396.390625 26.75 396.390625 23.996094 M 377.140625 0 C 380.28125 0 383.425781 0.394531 386.183594 1.578125 C 388.929688 3.144531 392.070313 4.722656 394.429688 7.085938 C 396.390625 9.046875 397.964844 11.800781 399.144531 14.558594 C 400.710938 17.699219 401.496094 21.238281 401.496094 24.390625 C 401.496094 27.144531 400.710938 30.289063 399.535156 33.042969 C 397.964844 36.1875 396.390625 38.945313 394.429688 40.90625 C 392.070313 43.269531 389.320313 45.234375 386.566406 46.417969 C 383.820313 47.207031 380.28125 47.988281 376.75 47.988281 C 374 47.988281 370.859375 47.207031 368.105469 46.417969 C 365.355469 45.234375 362.210938 43.269531 360.25 40.90625 C 358.285156 38.945313 355.925781 36.1875 355.140625 33.4375 C 353.964844 30.679688 353.175781 27.144531 353.175781 24.390625 C 353.175781 21.238281 353.964844 18.09375 355.140625 14.945313 C 355.925781 12.195313 358.285156 9.046875 360.25 7.085938 C 362.210938 4.722656 364.964844 2.75 367.714844 1.578125 C 370.464844 0.394531 373.605469 0 376.75 0 L 377.140625 0 "/>
</g>
</g>
</svg>
